<?xml version="1.0" encoding="utf-8"?>
<!-- Generator: Adobe Illustrator 27.1.1, SVG Export Plug-In . SVG Version: 6.00 Build 0)  -->
<svg version="1.1" id="Layer_1" xmlns="http://www.w3.org/2000/svg" xmlns:xlink="http://www.w3.org/1999/xlink" x="0px" y="0px"
	 viewBox="0 0 30 30" style="enable-background:new 0 0 30 30;" xml:space="preserve">
<style type="text/css">
	.st0{fill:#FFFFFF;}
</style>
<path class="st0" d="M0,4.2C0,3,1,2,2.1,2h25.7C29,2,30,3,30,4.2s-1,2.2-2.1,2.2H2.1C1,6.4,0,5.4,0,4.2z M0,15c0-1.2,1-2.2,2.1-2.2
	h25.7c1.2,0,2.1,1,2.1,2.2c0,1.2-1,2.2-2.1,2.2H2.1C1,17.2,0,16.2,0,15z M30,25.8c0,1.2-1,2.2-2.1,2.2H2.1C1,28,0,27,0,25.8
	c0-1.2,1-2.2,2.1-2.2h25.7C29,23.6,30,24.6,30,25.8z"/>
</svg>
